HIERARCHY
ROOT Hips
{
  OFFSET -354.97 84.371 -150.031
  CHANNELS 6 Xposition Yposition Zposition Zrotation Xrotation Yrotation
  JOINT RightUpLeg
  {
    OFFSET -8.9458 -8.66707 0.101652
    CHANNELS 3 Zrotation Xrotation Yrotation
    JOINT RightLeg
    {
      OFFSET 0 -44.4227 1.3727
      CHANNELS 3 Zrotation Xrotation Yrotation
      JOINT RightFoot
      {
        OFFSET 0.253549 -42.0924 -1.46059
        CHANNELS 3 Zrotation Xrotation Yrotation
        JOINT RightToes
        {
          OFFSET 0.04 -4.41509 8.4991
          CHANNELS 3 Zrotation Xrotation Yrotation
          End Site
          {
            OFFSET -0.08 -0.137448 9.77979
          }
        }
      }
    }
  }
  JOINT Spine
  {
    OFFSET 0 11.8905 0
    CHANNELS 3 Zrotation Xrotation Yrotation
    JOINT Spine1
    {
      OFFSET 0 25.6574 0.127663
      CHANNELS 3 Zrotation Xrotation Yrotation
      JOINT HEad
      {
        OFFSET 0 8.73416 0.011341
        CHANNELS 3 Zrotation Xrotation Yrotation
        End Site
        {
          OFFSET -0.29 12.7742 2.51395
        }
      }
      JOINT LeftShoulder1
      {
        OFFSET 8.99 -0.362252 -0.22
        CHANNELS 3 Zrotation Xrotation Yrotation
        JOINT LeftArm
        {
          OFFSET 10.2827 -0.00338 0.322123
          CHANNELS 3 Zrotation Xrotation Yrotation
          JOINT LeftForeArm
          {
            OFFSET 32.7669 0.099144 -1.42434
            CHANNELS 3 Zrotation Xrotation Yrotation
            JOINT LeftHand
            {
              OFFSET 27.5643 0.085362 1.02216
              CHANNELS 3 Zrotation Xrotation Yrotation
              End Site
              {
                OFFSET 16.7443 -0.6 1.50291
              }
            }
          }
        }
      }
      JOINT RightShoulder
      {
        OFFSET -8.99 -0.362252 -0.22
        CHANNELS 3 Zrotation Xrotation Yrotation
        JOINT RightArm
        {
          OFFSET -10.2827 -0.00338 0.322123
          CHANNELS 3 Zrotation Xrotation Yrotation
          JOINT RightForeArm
          {
            OFFSET -32.8971 0.099144 -1.42434
            CHANNELS 3 Zrotation Xrotation Yrotation
            JOINT RightHand
            {
              OFFSET -27.4921 0.085362 1.02216
              CHANNELS 3 Zrotation Xrotation Yrotation
              End Site
              {
                OFFSET -16.6312 -0.6 1.50291
              }
            }
          }
        }
      }
    }
  }
  JOINT LeftUpLeg
  {
    OFFSET 8.9458 -8.66707 0.101652
    CHANNELS 3 Zrotation Xrotation Yrotation
    JOINT LeftLeg
    {
      OFFSET 0 -44.4227 1.3727
      CHANNELS 3 Zrotation Xrotation Yrotation
      JOINT LeftFoot
      {
        OFFSET -0.253549 -42.0924 -1.46059
        CHANNELS 3 Zrotation Xrotation Yrotation
        JOINT LeftToes
        {
          OFFSET -0.04 -4.41509 8.4991
          CHANNELS 3 Zrotation Xrotation Yrotation
          End Site
          {
            OFFSET 0.08 -0.047448 9.77979
          }
        }
      }
    }
  }
}
MOTION
Frames:	15
Frame Time:	0.0166667
-339.068 97.1252 -162.642 -4.18868 -0.851001 37.617 -16.7941 -5.50674 4.15877 20.0542 14.3153 -21.2008 -26.3642 -3.14506 -1.71267 0.0462048 0.000533403 0.662642 -10.5521 7.50135 -5.08187 0.00722426 -0.00600054 0.00487012 -6.76788 7.79632 31.7508 4.07509e-015 9.93923e-016 -9.54166e-015 163.905 -49.2471 -170.78 -129.073 47.5537 9.29312 20.817 30.0278 -11.9718 23.7786 10.8245 5.15337 79.4274 -15.9221 71.0987 41.8822 53.8514 84.5604 -1.65354 24.9991 7.89551 18.3409 -26.4359 -1.87504 -14.9689 32.4414 37.3497 8.91693 -1.69513 0.591072 -1.18446e-009 1.5602e-007 -4.87131e-009 
-338.661 97.1579 -163.033 -3.60699 -1.22797 37.4841 -16.4546 -7.36919 4.16392 27.6251 13.8023 -24.2494 -26.6872 -2.88985 -1.57419 0.0462048 0.000533403 0.662642 -9.21966 7.15707 -3.85222 0.00722426 -0.00600054 0.00487012 -4.865 8.57181 25.3189 -7.95139e-016 -3.97569e-016 6.36111e-015 175.472 -52.7152 -155.94 -121.116 52.9928 5.13131 18.6522 34.3637 -8.14049 22.8379 11.4267 2.82456 90.7341 -13.7008 72.3343 38.8288 52.8201 83.9424 12.1718 21.9415 3.06111 19.1727 -25.5946 -1.85339 -18.4319 30.8254 45.785 11.1186 -1.3854 0.684584 -1.18446e-009 1.5602e-007 -4.87132e-009 
-338.402 96.8953 -163.435 -2.81368 -1.73797 37.5055 -15.0257 -8.95778 4.1998 32.3306 13.0511 -26.6419 -37.7908 -2.03608 -2.09793 0.0462048 0.000533403 0.662642 -8.01276 7.28735 -2.82323 0.00722426 -0.00600054 0.00487012 -3.17666 8.82612 19.4067 -5.46658e-016 -2.78299e-015 3.18055e-015 -176.16 -54.5322 -145.014 -114.624 56.8902 0.187641 20.3058 30.3286 -10.5897 21.9943 11.8853 0.804299 102.495 -11.0867 73.071 37.0271 56.4108 80.6758 17.1736 21.055 1.96707 20.2949 -24.777 -1.92401 -22.2087 28.7625 55.3634 13.729 -1.38943 0.740648 -1.18446e-009 1.5602e-007 -4.87131e-009 
-338.235 96.7438 -163.826 -1.86663 -2.3378 37.6625 -15.5095 -10.4815 4.17046 35.8965 14.0397 -29.2719 -31.5578 -2.22615 -1.73348 0.0462048 0.000533403 0.662642 -6.92816 7.80435 -2.01187 0.00722426 -0.00600054 0.00487012 -1.71583 8.65336 14.0848 3.15571e-015 -1.54058e-015 -3.18055e-015 -170.201 -55.6302 -137.072 -109.107 59.6549 -4.73241 18.8508 31.7443 -8.40298 21.2524 12.2006 -0.833968 109.674 -9.73135 73.0702 36.1226 59.1541 78.9516 22.1207 19.371 0.286408 21.0989 -23.341 -2.32264 -24.5944 26.1155 62.746 15.9914 -0.867478 0.791725 -1.18446e-009 1.5602e-007 -4.87131e-009 
-338.145 96.3632 -164.18 -0.823788 -2.99004 37.9305 -15.3331 -11.6944 4.17928 36.9073 15.7219 -31.3202 -31.0831 -2.03104 -1.71576 0.0462048 0.000533403 0.662642 -5.96224 8.62294 -1.41403 0.00722426 -0.00600054 0.00487012 -0.479464 8.15113 9.38867 1.56543e-015 -1.2424e-016 -1.27222e-014 -165.897 -56.3617 -131.254 -104.29 61.5735 -9.41803 19.8835 28.53 -10.1447 20.4796 12.3752 -2.13128 113.858 -9.12827 72.9224 35.8101 60.9309 78.0493 23.2306 19.2491 0.144714 21.9688 -22.0053 -2.84989 -26.8921 24.0157 68.8874 17.8588 -0.649738 0.786847 -1.18446e-009 1.5602e-007 -4.87131e-009 
-338.115 95.9038 -164.483 0.263889 -3.66447 38.2838 -15.1447 -12.679 4.1966 37.1889 17.7742 -33.1078 -30.9447 -1.77667 -1.69069 0.0462048 0.000533403 0.662642 -5.11336 9.66792 -1.01247 0.00722426 -0.00600054 0.00487012 0.556671 7.40975 5.3253 1.19271e-015 3.97569e-016 -3.18055e-015 -162.655 -56.8216 -126.859 -100.064 62.8964 -13.6188 19.1028 28.5898 -9.18622 19.6779 12.4204 -3.13795 116.067 -8.89545 72.808 35.7579 61.9214 77.6557 24.8545 18.6217 -0.499331 22.7557 -20.6838 -3.52741 -28.9447 22.126 73.7555 19.4828 -0.516149 0.773404 -1.18446e-009 1.5602e-007 -4.87131e-009 
-338.108 95.4195 -164.73 1.3557 -4.33845 38.7001 -14.9573 -13.4505 4.21316 37.1161 19.9595 -34.6744 -30.892 -1.5089 -1.66764 0.0462048 0.000533403 0.662642 -4.37992 10.8736 -0.782738 0.00722426 -0.00600054 0.00487012 1.42696 6.51091 1.87815 1.19271e-015 -7.95139e-016 -6.36111e-015 -160.076 -57.054 -123.431 -96.2653 63.7706 -17.4386 19.853 26.1069 -10.5179 18.8744 12.349 -3.89025 116.988 -8.83076 72.7741 35.7641 62.3122 77.6387 24.5861 18.8376 -0.365525 23.4289 -19.4234 -4.31736 -30.7918 20.4297 77.4828 20.9061 -0.431603 0.758524 -1.18447e-009 1.5602e-007 -4.87131e-009 
-338.141 94.9812 -164.923 2.40737 -4.99808 39.162 -14.8042 -13.9729 4.22055 36.9941 22.18 -36.0906 -30.8005 -1.177 -1.64141 0.0462048 0.000533403 0.662642 -3.74922 12.1795 -0.699048 0.00722426 -0.00600054 0.00487012 2.17035 5.52282 -0.986003 1.98785e-016 3.97569e-016 -3.18055e-015 -157.877 -57.0501 -120.941 -92.7172 64.4282 -20.3829 19.4954 25.569 -10.2024 18.1171 12.1718 -4.41578 117.071 -8.84942 72.8059 35.7302 62.311 77.9126 24.8664 18.6845 -0.584713 23.8067 -18.2284 -5.1992 -31.4762 18.492 78.1326 22.525 -0.494285 0.77711 -1.18447e-009 1.5602e-007 -4.87131e-009 
-338.203 94.6197 -165.068 3.38458 -5.63261 39.6629 -14.7187 -14.2815 4.19647 36.959 24.3549 -37.3757 -30.7321 -0.811368 -1.61641 0.0462048 0.000533403 0.662642 -3.20983 13.5342 -0.739878 0.00722426 -0.00600054 0.00487012 2.82459 4.5 -3.31218 7.95139e-016 7.95139e-016 -1.27222e-014 -155.759 -56.8353 -118.765 -89.1546 64.8288 -23.2919 20.0246 23.6768 -11.1799 17.4496 11.8964 -4.73898 116.617 -8.93171 72.8881 35.6465 62.0495 78.3992 24.191 18.948 -0.368699 23.8779 -17.0527 -6.14973 -31.5018 16.6874 76.3459 24.0742 -0.710835 0.831968 -1.18447e-009 1.5602e-007 -4.87131e-009 
-338.25 94.3211 -165.171 4.27341 -6.23305 40.1956 -14.7402 -14.4502 4.13304 37.15 26.4056 -38.6231 -30.7714 -0.483191 -1.59556 0.0462048 0.000533403 0.662642 -2.76047 14.8998 -0.878086 0.00722426 -0.00600054 0.00487012 3.42079 3.48533 -5.1512 -0 -7.95139e-016 -0 -153.539 -56.408 -116.691 -85.3938 65.023 -26.3056 19.8889 23.0638 -11.1589 16.9201 11.5295 -4.88829 115.812 -9.08378 72.9923 35.527 61.6434 79.0248 23.9769 18.9645 -0.381591 23.8303 -15.8806 -7.11672 -32.0139 15.357 74.7341 25.3336 -0.936035 0.903736 -1.18446e-009 1.5602e-007 -4.87132e-009 
-338.266 94.0808 -165.239 5.07844 -6.79209 40.7507 -14.8456 -14.5138 4.04145 37.5376 28.2458 -39.8433 -30.9486 -0.189677 -1.57992 0.0462048 0.000533403 0.662642 -2.40656 16.2477 -1.08237 0.00722426 -0.00600054 0.00487012 3.97899 2.51392 -6.55532 7.95139e-016 1.59028e-015 -1.27222e-014 -151.141 -55.7872 -114.626 -81.3249 65.0174 -29.5542 20.2421 21.7351 -11.8614 16.5512 11.085 -4.89411 114.79 -9.31819 73.0998 35.3963 61.1569 79.7313 23.2746 19.2049 -0.142353 23.738 -14.7746 -8.053 -32.7109 14.3343 73.2203 26.4356 -1.12177 0.977202 -1.18447e-009 1.5602e-007 -4.87131e-009 
-338.229 93.8878 -165.274 5.81329 -7.30401 41.3196 -15.0474 -14.4874 3.93797 38.0575 29.8749 -41.0327 -30.9593 0.0526247 -1.56129 0.0462048 0.000533403 0.662642 -2.1537 17.5548 -1.32408 0.00722426 -0.00600054 0.00487012 4.50813 1.61377 -7.57427 -7.95139e-016 -1.98785e-015 -0 -148.573 -54.9977 -112.537 -76.9785 64.8191 -33.0064 20.1646 21.1994 -11.9387 16.3427 10.5869 -4.78503 113.655 -9.64069 73.1923 35.2618 60.6475 80.4816 22.9032 19.3043 -0.0529921 23.6417 -13.7764 -8.93071 -33.4294 13.5212 71.795 27.4541 -1.27719 1.04879 -1.18446e-009 1.5602e-007 -4.87131e-009 
-338.128 93.721 -165.275 6.49173 -7.76451 41.8964 -15.3175 -14.3732 3.83767 38.6663 31.2623 -42.1818 -30.991 0.258607 -1.5457 0.0462048 0.000533403 0.662642 -2.0035 18.8004 -1.58111 0.00722426 -0.00600054 0.00487012 5.00843 0.805576 -8.25349 -1.19271e-015 -1.59028e-015 -0 -145.895 -54.0821 -110.449 -72.4647 64.4214 -36.5943 20.3461 20.2797 -12.4133 16.2694 10.067 -4.586 112.495 -10.0465 73.2629 35.1272 60.1456 81.2539 22.2692 19.5172 0.174504 23.5685 -12.9158 -9.73186 -34.1198 12.8803 70.4863 28.4214 -1.40654 1.11659 -1.18446e-009 1.5602e-007 -4.87131e-009 
-337.968 93.5671 -165.247 7.12307 -8.1707 42.4777 -15.6406 -14.1764 3.75337 39.3158 32.4141 -43.2846 -31.0249 0.429636 -1.5325 0.0462048 0.000533403 0.662642 -1.95295 19.9671 -1.83832 0.00722426 -0.00600054 0.00487012 5.47457 0.101812 -8.63355 -7.95139e-016 -7.95139e-016 -6.36111e-015 -143.178 -53.082 -108.392 -67.9455 63.8359 -40.1835 20.2418 19.853 -12.4899 16.2983 9.55708 -4.32041 111.382 -10.5182 73.3058 34.993 59.6786 82.0309 21.866 19.6205 0.288928 23.5198 -12.2026 -10.4488 -34.7607 12.3913 69.3202 29.3533 -1.50609 1.18103 -1.18447e-009 1.5602e-007 -4.87131e-009 
-337.765 93.419 -165.194 7.71144 -8.52136 43.061 -15.9969 -13.9063 3.69448 39.9712 33.3362 -44.3408 -31.0569 0.567763 -1.52136 0.0462048 0.000533403 0.662642 -1.99552 21.0414 -2.08528 0.00722426 -0.00600054 0.00487012 5.89834 -0.492524 -8.75112 -2.64834e-031 2.38542e-015 6.36111e-015 -140.49 -52.0424 -106.403 -63.5801 63.0797 -43.6613 20.2739 19.2329 -12.7819 16.3941 9.08316 -4.01115 110.366 -11.0277 73.3202 34.863 59.2542 82.798 21.3459 19.7542 0.459828 23.4869 -11.6355 -11.078 -35.3447 12.0425 68.3139 30.2572 -1.57403 1.24059 -1.18447e-009 1.5602e-007 -4.87131e-009 
